<svg xmlns="http://www.w3.org/2000/svg" width="520" height="1200" viewBox="0 0 520 1200" fill="none">
  <g opacity="0.62">
    <path
      d="M340 370c-26-60-82-104-148-104-92 0-166 74-166 166 0 88 68 160 154 166 10 36 42 64 80 64 20 0 38-8 52-20 14 12 32 20 52 20 38 0 70-28 80-64 86-6 154-78 154-166 0-18-4-36-8-52"
      fill="#388E3C"
      fill-opacity="0.10"
    />
    <path
      d="M146 496c6 56 44 100 114 112"
      stroke="#1B4332"
      stroke-width="2"
      stroke-opacity="0.13"
      stroke-linecap="round"
    />
    <path
      d="M252 220c-70 114-70 260 0 374"
      stroke="#2D6A4F"
      stroke-width="2"
      stroke-opacity="0.14"
      stroke-linecap="round"
    />
    <path
      d="M90 930c64-110 160-170 210-170s146 60 210 170"
      stroke="#388E3C"
      stroke-width="2"
      stroke-opacity="0.16"
      stroke-linecap="round"
    />
    <path
      d="M128 102c22 22 48 34 78 34s56-12 78-34"
      stroke="#388E3C"
      stroke-width="2"
      stroke-opacity="0.16"
      stroke-linecap="round"
    />
    <path
      d="M156 110c10-16 26-26 50-26s40 10 50 26"
      stroke="#2D6A4F"
      stroke-width="2"
      stroke-opacity="0.14"
      stroke-linecap="round"
    />
  </g>
</svg>
