<svg xmlns="http://www.w3.org/2000/svg" width="520" height="1200" viewBox="0 0 520 1200" fill="none">
  <g opacity="0.62">
    <path
      d="M260 120c-42 0-76 34-76 76 0 20 8 42 24 64-48-8-92 20-104 68-12 46 14 92 60 108-22 16-44 44-44 76 0 54 44 98 98 98 32 0 60-14 78-36 18 22 46 36 78 36 54 0 98-44 98-98 0-32-22-60-44-76 46-16 72-62 60-108-12-48-56-76-104-68 16-22 24-44 24-64 0-42-34-76-76-76z"
      fill="#388E3C"
      fill-opacity="0.11"
    />
    <path
      d="M260 310c-58 0-110 48-110 110s52 110 110 110 110-48 110-110-52-110-110-110z"
      stroke="#2D6A4F"
      stroke-width="2"
      stroke-opacity="0.18"
    />
    <path
      d="M110 670c30-70 92-120 150-120 58 0 120 50 150 120"
      stroke="#388E3C"
      stroke-width="2"
      stroke-opacity="0.18"
      stroke-linecap="round"
    />
    <path
      d="M60 950c60-120 170-200 240-200 70 0 180 80 240 200"
      stroke="#1B4332"
      stroke-width="2"
      stroke-opacity="0.12"
      stroke-linecap="round"
    />
    <path
      d="M260 380c-44 80-44 178 0 258"
      stroke="#388E3C"
      stroke-width="2"
      stroke-opacity="0.14"
      stroke-linecap="round"
    />
  </g>
</svg>
